<svg xmlns="http://www.w3.org/2000/svg" viewBox="0 0 886 974" style="width:100%;height:100%;transform:translate3d(0,0,0)"><defs><clipPath id="a"><path d="M0 0h886v974H0z"/></clipPath><clipPath id="b"><path d="M0 0h1920v1080H0z"/></clipPath><clipPath id="t"><path fill="#fff" d="M468.924-243.639h-951.352v113.514h951.352v-113.514"/></clipPath><clipPath id="s"><path fill="#fff" d="M467.924-111.206h-951.352V2.307h951.352v-113.513"/></clipPath><clipPath id="r"><path fill="#fff" d="M454.059-245.069h-967.568v68.919h967.568v-68.919"/></clipPath><clipPath id="q"><path fill="#fff" d="M453.059-112.285h-967.568v68.919h967.568v-68.919"/></clipPath><clipPath id="p"><path fill="#fff" d="M468.924-245.128H-578.374v68.412H468.924v-68.412"/></clipPath><clipPath id="o"><path fill="#fff" d="M468.924-112.567H-578.374v68.412H468.924v-68.412"/></clipPath><clipPath id="n"><path fill="#fff" d="M457.613-197.209h-912.162v68.244h912.162v-68.244"/></clipPath><clipPath id="m"><path fill="#fff" d="m457.613-64.425-912.162-.338V3.818h912.162v-68.243"/></clipPath><clipPath id="l"><path fill="#fff" d="M401.363-170.265h-820.27v43.412h820.27v-43.412"/></clipPath><clipPath id="k"><path fill="#fff" d="M408.113-37.758h-820.27V5.654h820.27v-43.412"/></clipPath><clipPath id="j"><path fill="#fff" d="M416.572-244.603h-898.648v41.386h898.648v-41.386"/></clipPath><clipPath id="i"><path fill="#fff" d="M417.572-112.873h-898.648v41.385h898.648v-41.385"/></clipPath><clipPath id="h"><path fill="#fff" d="M381.086-244.496H-410.13v38.514h791.216v-38.514"/></clipPath><clipPath id="g"><path fill="#fff" d="M381.086-112.388H-410.13v38.514h791.216v-38.514"/></clipPath><clipPath id="f"><path fill="#fff" d="M400.68-169.768h-821.621v42.959H400.68v-42.959"/></clipPath><clipPath id="e"><path fill="#fff" d="M400.68-37.451h-821.621V4.864H400.68v-42.315"/></clipPath><clipPath id="d"><path fill="#fff" d="M404.059-169.047h-835.811v42.103h835.811v-42.103"/></clipPath><clipPath id="c"><path fill="#fff" d="M404.059-37.243h-835.811V4.86h835.811v-42.103"/></clipPath></defs><g clip-path="url(#a)"><g clip-path="url(#b)" style="display:block" transform="matrix(1.05 0 0 1.05 -563 -86)"><path d="M0 0h1920v1080H0z" style="display:block"/><g clip-path="url(#c)" style="display:block" transform="matrix(0 -1.48 1.48 0 1393.119 546.007)"><path fill="#FFF" d="M254.172-132h72.3v-18.9h-48.15v-26.7h36.6v-17.7h-36.6v-25.05h45.75v-18.9h-69.9V-132zm-234.297 0h21.6v-76.35l44.7 76.35h24.3v-107.25h-21.6v70.65l-40.8-70.65h-28.2V-132zm-273.596-.9c5.599-1.699 10.5-4.249 14.7-7.65 4.2-3.3 7.598-7.474 10.2-12.525 2.599-5.048 4.249-10.875 4.95-17.475h-23.85c-1.001 6.9-3.675 12.052-8.025 15.45-4.35 3.401-9.877 5.1-16.575 5.1-8.902 0-15.776-3.049-20.625-9.15-4.852-6.098-7.275-14.749-7.275-25.95v-1.2c0-11.198 2.498-19.898 7.5-26.1 4.999-6.199 11.749-9.3 20.25-9.3 6.799 0 12.023 1.676 15.675 5.025 3.649 3.352 5.925 8.276 6.825 14.775h24.9c-.6-6.6-2.227-12.349-4.875-17.25-2.651-4.898-6.026-8.948-10.125-12.15-4.2-3.199-9.075-5.599-14.625-7.2-5.55-1.598-11.527-2.4-17.925-2.4-7.601 0-14.651 1.327-21.15 3.975-6.502 2.651-12.101 6.375-16.8 11.175-4.8 4.8-8.55 10.575-11.25 17.325-2.7 6.75-4.05 14.175-4.05 22.275v1.2c0 8.302 1.148 15.802 3.45 22.5 2.299 6.701 5.749 12.401 10.35 17.1 4.5 4.8 10.099 8.501 16.8 11.1 6.698 2.599 14.449 3.9 23.25 3.9 6.6 0 12.698-.851 18.3-2.55z"/></g><g clip-path="url(#d)" style="display:block" transform="matrix(0 -1.48 1.48 0 1588.119 546.007)"><path fill="#FFF" d="M254.172-132h72.3v-18.9h-48.15v-26.7h36.6v-17.7h-36.6v-25.05h45.75v-18.9h-69.9V-132zm-234.297 0h21.6v-76.35l44.7 76.35h24.3v-107.25h-21.6v70.65l-40.8-70.65h-28.2V-132zm-273.596-.9c5.599-1.699 10.5-4.249 14.7-7.65 4.2-3.3 7.598-7.474 10.2-12.525 2.599-5.048 4.249-10.875 4.95-17.475h-23.85c-1.001 6.9-3.675 12.052-8.025 15.45-4.35 3.401-9.877 5.1-16.575 5.1-8.902 0-15.776-3.049-20.625-9.15-4.852-6.098-7.275-14.749-7.275-25.95v-1.2c0-11.198 2.498-19.898 7.5-26.1 4.999-6.199 11.749-9.3 20.25-9.3 6.799 0 12.023 1.676 15.675 5.025 3.649 3.352 5.925 8.276 6.825 14.775h24.9c-.6-6.6-2.227-12.349-4.875-17.25-2.651-4.898-6.026-8.948-10.125-12.15-4.2-3.199-9.075-5.599-14.625-7.2-5.55-1.598-11.527-2.4-17.925-2.4-7.601 0-14.651 1.327-21.15 3.975-6.502 2.651-12.101 6.375-16.8 11.175-4.8 4.8-8.55 10.575-11.25 17.325-2.7 6.75-4.05 14.175-4.05 22.275v1.2c0 8.302 1.148 15.802 3.45 22.5 2.299 6.701 5.749 12.401 10.35 17.1 4.5 4.8 10.099 8.501 16.8 11.1 6.698 2.599 14.449 3.9 23.25 3.9 6.6 0 12.698-.851 18.3-2.55z"/></g><g clip-path="url(#e)" style="display:block" transform="rotate(-90 929.717 -383.71) scale(1.48)"><path fill="#FFF" d="M254.172-132h72.3v-18.9h-48.15v-26.7h36.6v-17.7h-36.6v-25.05h45.75v-18.9h-69.9V-132zm-48.374-1.8c6.248-2.299 11.524-5.55 15.825-9.75 4.298-4.099 7.575-9.075 9.825-14.925 2.25-5.85 3.375-12.375 3.375-19.575v-11.4h-48.15v17.7h24.15c-.101 3.08-.652 5.986-1.65 8.719a18.228 18.228 0 0 1-4.65 7.076c-2.1 2.086-4.751 3.726-7.95 4.917-3.202 1.193-7.05 1.788-11.55 1.788-5.302 0-9.825-.872-13.575-2.618s-6.825-4.216-9.225-7.411c-2.4-3.094-4.177-6.81-5.325-11.151-1.151-4.341-1.725-9.108-1.725-14.297v-1.198c0-10.976 2.573-19.683 7.725-26.119 5.149-6.436 12.424-9.656 21.825-9.656 6.499 0 11.723 1.477 15.675 4.425 3.949 2.951 6.473 7.575 7.575 13.875h24.15c-.6-6.6-2.325-12.274-5.175-17.025-2.85-4.748-6.427-8.674-10.725-11.775-4.301-3-9.176-5.198-14.625-6.6-5.452-1.399-11.175-2.1-17.175-2.1-7.901 0-15.202 1.35-21.9 4.05-6.701 2.7-12.45 6.45-17.25 11.25-4.901 4.8-8.7 10.552-11.4 17.25-2.7 6.701-4.05 14.1-4.05 22.2v1.2c0 8.002 1.2 15.326 3.6 21.975 2.4 6.652 5.948 12.375 10.65 17.175 4.598 4.901 10.275 8.7 17.025 11.4 6.75 2.7 14.524 4.05 23.325 4.05 7.999 0 15.124-1.151 21.375-3.45zm-254.472-85.65 14.1 46.35h-28.35l14.25-46.35zM-98.324-132h22.8l7.35-23.85h38.85l7.35 23.85h25.35l-34.8-107.25h-31.65L-98.324-132zm-107.998 0h24.3v-44.25h43.05V-132h24.3v-107.25h-24.3v43.8h-43.05v-43.8h-24.3V-132z"/></g><g clip-path="url(#f)" style="display:block" transform="matrix(0 -1.48 1.48 0 1508.926 546.007)"><path fill="#FFF" d="M254.172-132h72.3v-18.9h-48.15v-26.7h36.6v-17.7h-36.6v-25.05h45.75v-18.9h-69.9V-132zm-48.374-1.8c6.248-2.299 11.524-5.55 15.825-9.75 4.298-4.099 7.575-9.075 9.825-14.925 2.25-5.85 3.375-12.375 3.375-19.575v-11.4h-48.15v17.7h24.15c-.101 3.08-.652 5.986-1.65 8.719a18.228 18.228 0 0 1-4.65 7.076c-2.1 2.086-4.751 3.726-7.95 4.917-3.202 1.193-7.05 1.788-11.55 1.788-5.302 0-9.825-.872-13.575-2.618s-6.825-4.216-9.225-7.411c-2.4-3.094-4.177-6.81-5.325-11.151-1.151-4.341-1.725-9.108-1.725-14.297v-1.198c0-10.976 2.573-19.683 7.725-26.119 5.149-6.436 12.424-9.656 21.825-9.656 6.499 0 11.723 1.477 15.675 4.425 3.949 2.951 6.473 7.575 7.575 13.875h24.15c-.6-6.6-2.325-12.274-5.175-17.025-2.85-4.748-6.427-8.674-10.725-11.775-4.301-3-9.176-5.198-14.625-6.6-5.452-1.399-11.175-2.1-17.175-2.1-7.901 0-15.202 1.35-21.9 4.05-6.701 2.7-12.45 6.45-17.25 11.25-4.901 4.8-8.7 10.552-11.4 17.25-2.7 6.701-4.05 14.1-4.05 22.2v1.2c0 8.002 1.2 15.326 3.6 21.975 2.4 6.652 5.948 12.375 10.65 17.175 4.598 4.901 10.275 8.7 17.025 11.4 6.75 2.7 14.524 4.05 23.325 4.05 7.999 0 15.124-1.151 21.375-3.45zm-254.472-85.65 14.1 46.35h-28.35l14.25-46.35zM-98.324-132h22.8l7.35-23.85h38.85l7.35 23.85h25.35l-34.8-107.25h-31.65L-98.324-132zm-107.998 0h24.3v-44.25h43.05V-132h24.3v-107.25h-24.3v43.8h-43.05v-43.8h-24.3V-132z"/></g><g clip-path="url(#g)" style="display:block" transform="matrix(0 -1.48 1.48 0 771.333 546.007)"><path fill="#FFF" d="M205.798-133.8c6.248-2.299 11.524-5.55 15.825-9.75 4.298-4.099 7.575-9.075 9.825-14.925 2.25-5.85 3.375-12.375 3.375-19.575v-11.4h-48.15v17.7h24.15c-.101 3.08-.652 5.986-1.65 8.719a18.228 18.228 0 0 1-4.65 7.076c-2.1 2.086-4.751 3.726-7.95 4.917-3.202 1.193-7.05 1.788-11.55 1.788-5.302 0-9.825-.872-13.575-2.618s-6.825-4.216-9.225-7.411c-2.4-3.094-4.177-6.81-5.325-11.151-1.151-4.341-1.725-9.108-1.725-14.297v-1.198c0-10.976 2.573-19.683 7.725-26.119 5.149-6.436 12.424-9.656 21.825-9.656 6.499 0 11.723 1.477 15.675 4.425 3.949 2.951 6.473 7.575 7.575 13.875h24.15c-.6-6.6-2.325-12.274-5.175-17.025-2.85-4.748-6.427-8.674-10.725-11.775-4.301-3-9.176-5.198-14.625-6.6-5.452-1.399-11.175-2.1-17.175-2.1-7.901 0-15.202 1.35-21.9 4.05-6.701 2.7-12.45 6.45-17.25 11.25-4.901 4.8-8.7 10.552-11.4 17.25-2.7 6.701-4.05 14.1-4.05 22.2v1.2c0 8.002 1.2 15.326 3.6 21.975 2.4 6.652 5.948 12.375 10.65 17.175 4.598 4.901 10.275 8.7 17.025 11.4 6.75 2.7 14.524 4.05 23.325 4.05 7.999 0 15.124-1.151 21.375-3.45zM19.875-132h21.6v-76.35l44.7 76.35h24.3v-107.25h-21.6v70.65l-40.8-70.65h-28.2V-132zm-68.549-87.45 14.1 46.35h-28.35l14.25-46.35zM-98.324-132h22.8l7.35-23.85h38.85l7.35 23.85h25.35l-34.8-107.25h-31.65L-98.324-132zm-155.397-.9c5.599-1.699 10.5-4.249 14.7-7.65 4.2-3.3 7.598-7.474 10.2-12.525 2.599-5.048 4.249-10.875 4.95-17.475h-23.85c-1.001 6.9-3.675 12.052-8.025 15.45-4.35 3.401-9.877 5.1-16.575 5.1-8.902 0-15.776-3.049-20.625-9.15-4.852-6.098-7.275-14.749-7.275-25.95v-1.2c0-11.198 2.498-19.898 7.5-26.1 4.999-6.199 11.749-9.3 20.25-9.3 6.799 0 12.023 1.676 15.675 5.025 3.649 3.352 5.925 8.276 6.825 14.775h24.9c-.6-6.6-2.227-12.349-4.875-17.25-2.651-4.898-6.026-8.948-10.125-12.15-4.2-3.199-9.075-5.599-14.625-7.2-5.55-1.598-11.527-2.4-17.925-2.4-7.601 0-14.651 1.327-21.15 3.975-6.502 2.651-12.101 6.375-16.8 11.175-4.8 4.8-8.55 10.575-11.25 17.325-2.7 6.75-4.05 14.175-4.05 22.275v1.2c0 8.302 1.148 15.802 3.45 22.5 2.299 6.701 5.749 12.401 10.35 17.1 4.5 4.8 10.099 8.501 16.8 11.1 6.698 2.599 14.449 3.9 23.25 3.9 6.6 0 12.698-.851 18.3-2.55z"/></g><g clip-path="url(#h)" style="display:block" transform="matrix(0 -1.48 1.48 0 967.333 546.007)"><path fill="#FFF" d="M205.798-133.8c6.248-2.299 11.524-5.55 15.825-9.75 4.298-4.099 7.575-9.075 9.825-14.925 2.25-5.85 3.375-12.375 3.375-19.575v-11.4h-48.15v17.7h24.15c-.101 3.08-.652 5.986-1.65 8.719a18.228 18.228 0 0 1-4.65 7.076c-2.1 2.086-4.751 3.726-7.95 4.917-3.202 1.193-7.05 1.788-11.55 1.788-5.302 0-9.825-.872-13.575-2.618s-6.825-4.216-9.225-7.411c-2.4-3.094-4.177-6.81-5.325-11.151-1.151-4.341-1.725-9.108-1.725-14.297v-1.198c0-10.976 2.573-19.683 7.725-26.119 5.149-6.436 12.424-9.656 21.825-9.656 6.499 0 11.723 1.477 15.675 4.425 3.949 2.951 6.473 7.575 7.575 13.875h24.15c-.6-6.6-2.325-12.274-5.175-17.025-2.85-4.748-6.427-8.674-10.725-11.775-4.301-3-9.176-5.198-14.625-6.6-5.452-1.399-11.175-2.1-17.175-2.1-7.901 0-15.202 1.35-21.9 4.05-6.701 2.7-12.45 6.45-17.25 11.25-4.901 4.8-8.7 10.552-11.4 17.25-2.7 6.701-4.05 14.1-4.05 22.2v1.2c0 8.002 1.2 15.326 3.6 21.975 2.4 6.652 5.948 12.375 10.65 17.175 4.598 4.901 10.275 8.7 17.025 11.4 6.75 2.7 14.524 4.05 23.325 4.05 7.999 0 15.124-1.151 21.375-3.45zM19.875-132h21.6v-76.35l44.7 76.35h24.3v-107.25h-21.6v70.65l-40.8-70.65h-28.2V-132zm-68.549-87.45 14.1 46.35h-28.35l14.25-46.35zM-98.324-132h22.8l7.35-23.85h38.85l7.35 23.85h25.35l-34.8-107.25h-31.65L-98.324-132zm-155.397-.9c5.599-1.699 10.5-4.249 14.7-7.65 4.2-3.3 7.598-7.474 10.2-12.525 2.599-5.048 4.249-10.875 4.95-17.475h-23.85c-1.001 6.9-3.675 12.052-8.025 15.45-4.35 3.401-9.877 5.1-16.575 5.1-8.902 0-15.776-3.049-20.625-9.15-4.852-6.098-7.275-14.749-7.275-25.95v-1.2c0-11.198 2.498-19.898 7.5-26.1 4.999-6.199 11.749-9.3 20.25-9.3 6.799 0 12.023 1.676 15.675 5.025 3.649 3.352 5.925 8.276 6.825 14.775h24.9c-.6-6.6-2.227-12.349-4.875-17.25-2.651-4.898-6.026-8.948-10.125-12.15-4.2-3.199-9.075-5.599-14.625-7.2-5.55-1.598-11.527-2.4-17.925-2.4-7.601 0-14.651 1.327-21.15 3.975-6.502 2.651-12.101 6.375-16.8 11.175-4.8 4.8-8.55 10.575-11.25 17.325-2.7 6.75-4.05 14.175-4.05 22.275v1.2c0 8.302 1.148 15.802 3.45 22.5 2.299 6.701 5.749 12.401 10.35 17.1 4.5 4.8 10.099 8.501 16.8 11.1 6.698 2.599 14.449 3.9 23.25 3.9 6.6 0 12.698-.851 18.3-2.55z"/></g><g clip-path="url(#i)" style="display:block" transform="rotate(-90 615.03 -69.022) scale(1.48)"><path fill="#FFF" d="M19.875-132h21.6v-76.35l44.7 76.35h24.3v-107.25h-21.6v70.65l-40.8-70.65h-28.2V-132zm-226.197 0h24.3v-44.25h43.05V-132h24.3v-107.25h-24.3v43.8h-43.05v-43.8h-24.3V-132z"/></g><g clip-path="url(#j)" style="display:block" transform="matrix(0 -1.48 1.48 0 879.051 546.007)"><path fill="#FFF" d="M19.875-132h21.6v-76.35l44.7 76.35h24.3v-107.25h-21.6v70.65l-40.8-70.65h-28.2V-132zm-226.197 0h24.3v-44.25h43.05V-132h24.3v-107.25h-24.3v43.8h-43.05v-43.8h-24.3V-132z"/></g><path d="M960-66V66H-960V-66H960z" transform="matrix(0 -1.48 1.48 0 1104.53 541.502)" style="display:block"/><g clip-path="url(#k)" style="display:block" transform="rotate(-90 890.82 -344.812) scale(1.48)"><path fill="#FFF" d="M254.172-132h72.3v-18.9h-48.15v-26.7h36.6v-17.7h-36.6v-25.05h45.75v-18.9h-69.9V-132zm-234.297 0h21.6v-76.35l44.7 76.35h24.3v-107.25h-21.6v70.65l-40.8-70.65h-28.2V-132zm-68.549-87.45 14.1 46.35h-28.35l14.25-46.35zM-98.324-132h22.8l7.35-23.85h38.85l7.35 23.85h25.35l-34.8-107.25h-31.65L-98.324-132zm-107.998 0h24.3v-44.25h43.05V-132h24.3v-107.25h-24.3v43.8h-43.05v-43.8h-24.3V-132zm-47.399-.9c5.599-1.699 10.5-4.249 14.7-7.65 4.2-3.3 7.598-7.474 10.2-12.525 2.599-5.048 4.249-10.875 4.95-17.475h-23.85c-1.001 6.9-3.675 12.052-8.025 15.45-4.35 3.401-9.877 5.1-16.575 5.1-8.902 0-15.776-3.049-20.625-9.15-4.852-6.098-7.275-14.749-7.275-25.95v-1.2c0-11.198 2.498-19.898 7.5-26.1 4.999-6.199 11.749-9.3 20.25-9.3 6.799 0 12.023 1.676 15.675 5.025 3.649 3.352 5.925 8.276 6.825 14.775h24.9c-.6-6.6-2.227-12.349-4.875-17.25-2.651-4.898-6.026-8.948-10.125-12.15-4.2-3.199-9.075-5.599-14.625-7.2-5.55-1.598-11.527-2.4-17.925-2.4-7.601 0-14.651 1.327-21.15 3.975-6.502 2.651-12.101 6.375-16.8 11.175-4.8 4.8-8.55 10.575-11.25 17.325-2.7 6.75-4.05 14.175-4.05 22.275v1.2c0 8.302 1.148 15.802 3.45 22.5 2.299 6.701 5.749 12.401 10.35 17.1 4.5 4.8 10.099 8.501 16.8 11.1 6.698 2.599 14.449 3.9 23.25 3.9 6.6 0 12.698-.851 18.3-2.55z"/></g><g clip-path="url(#l)" style="display:block" transform="rotate(-90 988.57 -442.562) scale(1.48)"><path fill="#FFF" d="M254.172-132h72.3v-18.9h-48.15v-26.7h36.6v-17.7h-36.6v-25.05h45.75v-18.9h-69.9V-132zm-234.297 0h21.6v-76.35l44.7 76.35h24.3v-107.25h-21.6v70.65l-40.8-70.65h-28.2V-132zm-68.549-87.45 14.1 46.35h-28.35l14.25-46.35zM-98.324-132h22.8l7.35-23.85h38.85l7.35 23.85h25.35l-34.8-107.25h-31.65L-98.324-132zm-107.998 0h24.3v-44.25h43.05V-132h24.3v-107.25h-24.3v43.8h-43.05v-43.8h-24.3V-132zm-47.399-.9c5.599-1.699 10.5-4.249 14.7-7.65 4.2-3.3 7.598-7.474 10.2-12.525 2.599-5.048 4.249-10.875 4.95-17.475h-23.85c-1.001 6.9-3.675 12.052-8.025 15.45-4.35 3.401-9.877 5.1-16.575 5.1-8.902 0-15.776-3.049-20.625-9.15-4.852-6.098-7.275-14.749-7.275-25.95v-1.2c0-11.198 2.498-19.898 7.5-26.1 4.999-6.199 11.749-9.3 20.25-9.3 6.799 0 12.023 1.676 15.675 5.025 3.649 3.352 5.925 8.276 6.825 14.775h24.9c-.6-6.6-2.227-12.349-4.875-17.25-2.651-4.898-6.026-8.948-10.125-12.15-4.2-3.199-9.075-5.599-14.625-7.2-5.55-1.598-11.527-2.4-17.925-2.4-7.601 0-14.651 1.327-21.15 3.975-6.502 2.651-12.101 6.375-16.8 11.175-4.8 4.8-8.55 10.575-11.25 17.325-2.7 6.75-4.05 14.175-4.05 22.275v1.2c0 8.302 1.148 15.802 3.45 22.5 2.299 6.701 5.749 12.401 10.35 17.1 4.5 4.8 10.099 8.501 16.8 11.1 6.698 2.599 14.449 3.9 23.25 3.9 6.6 0 12.698-.851 18.3-2.55z"/></g><path d="M960-66V66H-960V-66H960z" transform="matrix(0 -1.48 1.48 0 1058.905 541.502)" style="display:block"/><g clip-path="url(#m)" style="display:block" transform="rotate(-90 850.808 -304.8) scale(1.48)"><path fill="#FFF" d="M254.172-134.379h72.3v-18.9h-48.15v-26.7h36.6v-17.7h-36.6v-25.05h45.75v-18.9h-69.9v107.25zm-48.374-1.8c6.248-2.299 11.524-5.55 15.825-9.75 4.298-4.099 7.575-9.075 9.825-14.925 2.25-5.85 3.375-12.375 3.375-19.575v-11.4h-48.15v17.7h24.15c-.101 3.08-.652 5.986-1.65 8.719a18.224 18.224 0 0 1-4.65 7.075c-2.1 2.086-4.751 3.727-7.95 4.918-3.202 1.193-7.05 1.788-11.55 1.788-5.302 0-9.825-.872-13.575-2.618s-6.825-4.216-9.225-7.411c-2.4-3.094-4.177-6.811-5.325-11.152-1.151-4.341-1.725-9.108-1.725-14.297v-1.197c0-10.976 2.573-19.683 7.725-26.119 5.149-6.436 12.424-9.656 21.825-9.656 6.499 0 11.723 1.477 15.675 4.425 3.949 2.951 6.473 7.575 7.575 13.875h24.15c-.6-6.6-2.325-12.274-5.175-17.025-2.85-4.748-6.427-8.674-10.725-11.775-4.301-3-9.176-5.198-14.625-6.6-5.452-1.399-11.175-2.1-17.175-2.1-7.901 0-15.202 1.35-21.9 4.05-6.701 2.7-12.45 6.45-17.25 11.25-4.901 4.8-8.7 10.552-11.4 17.25-2.7 6.701-4.05 14.1-4.05 22.2v1.2c0 8.002 1.2 15.326 3.6 21.975 2.4 6.652 5.948 12.375 10.65 17.175 4.598 4.901 10.275 8.7 17.025 11.4 6.75 2.7 14.524 4.05 23.325 4.05 7.999 0 15.124-1.151 21.375-3.45zm-185.923 1.8h21.6v-76.35l44.7 76.35h24.3v-107.25h-21.6v70.65l-40.8-70.65h-28.2v107.25zm-226.197 0h24.3v-44.25h43.05v44.25h24.3v-107.25h-24.3v43.8h-43.05v-43.8h-24.3v107.25zm-47.399-.9c5.599-1.699 10.5-4.249 14.7-7.65 4.2-3.3 7.598-7.474 10.2-12.525 2.599-5.048 4.249-10.875 4.95-17.475h-23.85c-1.001 6.9-3.675 12.052-8.025 15.45-4.35 3.401-9.877 5.1-16.575 5.1-8.902 0-15.776-3.049-20.625-9.15-4.852-6.098-7.275-14.749-7.275-25.95v-1.2c0-11.198 2.498-19.898 7.5-26.1 4.999-6.199 11.749-9.3 20.25-9.3 6.799 0 12.023 1.676 15.675 5.025 3.649 3.352 5.925 8.276 6.825 14.775h24.9c-.6-6.6-2.227-12.349-4.875-17.25-2.651-4.898-6.026-8.948-10.125-12.15-4.2-3.199-9.075-5.599-14.625-7.2-5.55-1.598-11.527-2.4-17.925-2.4-7.601 0-14.651 1.327-21.15 3.975-6.502 2.651-12.101 6.375-16.8 11.175-4.8 4.8-8.55 10.575-11.25 17.325-2.7 6.75-4.05 14.175-4.05 22.275v1.2c0 8.302 1.148 15.802 3.45 22.5 2.299 6.701 5.749 12.401 10.35 17.1 4.5 4.8 10.099 8.501 16.8 11.1 6.698 2.599 14.449 3.9 23.25 3.9 6.6 0 12.698-.851 18.3-2.55z"/></g><g clip-path="url(#n)" style="display:block" transform="rotate(-90 948.808 -402.8) scale(1.48)"><path fill="#FFF" d="M254.172-134.379h72.3v-18.9h-48.15v-26.7h36.6v-17.7h-36.6v-25.05h45.75v-18.9h-69.9v107.25zm-48.374-1.8c6.248-2.299 11.524-5.55 15.825-9.75 4.298-4.099 7.575-9.075 9.825-14.925 2.25-5.85 3.375-12.375 3.375-19.575v-11.4h-48.15v17.7h24.15c-.101 3.08-.652 5.986-1.65 8.719a18.224 18.224 0 0 1-4.65 7.075c-2.1 2.086-4.751 3.727-7.95 4.918-3.202 1.193-7.05 1.788-11.55 1.788-5.302 0-9.825-.872-13.575-2.618s-6.825-4.216-9.225-7.411c-2.4-3.094-4.177-6.811-5.325-11.152-1.151-4.341-1.725-9.108-1.725-14.297v-1.197c0-10.976 2.573-19.683 7.725-26.119 5.149-6.436 12.424-9.656 21.825-9.656 6.499 0 11.723 1.477 15.675 4.425 3.949 2.951 6.473 7.575 7.575 13.875h24.15c-.6-6.6-2.325-12.274-5.175-17.025-2.85-4.748-6.427-8.674-10.725-11.775-4.301-3-9.176-5.198-14.625-6.6-5.452-1.399-11.175-2.1-17.175-2.1-7.901 0-15.202 1.35-21.9 4.05-6.701 2.7-12.45 6.45-17.25 11.25-4.901 4.8-8.7 10.552-11.4 17.25-2.7 6.701-4.05 14.1-4.05 22.2v1.2c0 8.002 1.2 15.326 3.6 21.975 2.4 6.652 5.948 12.375 10.65 17.175 4.598 4.901 10.275 8.7 17.025 11.4 6.75 2.7 14.524 4.05 23.325 4.05 7.999 0 15.124-1.151 21.375-3.45zm-185.923 1.8h21.6v-76.35l44.7 76.35h24.3v-107.25h-21.6v70.65l-40.8-70.65h-28.2v107.25zm-226.197 0h24.3v-44.25h43.05v44.25h24.3v-107.25h-24.3v43.8h-43.05v-43.8h-24.3v107.25zm-47.399-.9c5.599-1.699 10.5-4.249 14.7-7.65 4.2-3.3 7.598-7.474 10.2-12.525 2.599-5.048 4.249-10.875 4.95-17.475h-23.85c-1.001 6.9-3.675 12.052-8.025 15.45-4.35 3.401-9.877 5.1-16.575 5.1-8.902 0-15.776-3.049-20.625-9.15-4.852-6.098-7.275-14.749-7.275-25.95v-1.2c0-11.198 2.498-19.898 7.5-26.1 4.999-6.199 11.749-9.3 20.25-9.3 6.799 0 12.023 1.676 15.675 5.025 3.649 3.352 5.925 8.276 6.825 14.775h24.9c-.6-6.6-2.227-12.349-4.875-17.25-2.651-4.898-6.026-8.948-10.125-12.15-4.2-3.199-9.075-5.599-14.625-7.2-5.55-1.598-11.527-2.4-17.925-2.4-7.601 0-14.651 1.327-21.15 3.975-6.502 2.651-12.101 6.375-16.8 11.175-4.8 4.8-8.55 10.575-11.25 17.325-2.7 6.75-4.05 14.175-4.05 22.275v1.2c0 8.302 1.148 15.802 3.45 22.5 2.299 6.701 5.749 12.401 10.35 17.1 4.5 4.8 10.099 8.501 16.8 11.1 6.698 2.599 14.449 3.9 23.25 3.9 6.6 0 12.698-.851 18.3-2.55z"/></g><path d="M960-66V66H-960V-66H960z" transform="matrix(0 -1.48 1.48 0 759.329 541.502)" style="display:block"/><g clip-path="url(#o)" style="display:block" transform="matrix(0 -1.48 1.48 0 841.538 546.007)"><path fill="#FFF" d="M254.172-132h72.3v-18.9h-48.15v-26.7h36.6v-17.7h-36.6v-25.05h45.75v-18.9h-69.9V-132zm-48.374-1.8c6.248-2.299 11.524-5.55 15.825-9.75 4.298-4.099 7.575-9.075 9.825-14.925 2.25-5.85 3.375-12.375 3.375-19.575v-11.4h-48.15v17.7h24.15c-.101 3.08-.652 5.986-1.65 8.719a18.228 18.228 0 0 1-4.65 7.076c-2.1 2.086-4.751 3.726-7.95 4.917-3.202 1.193-7.05 1.788-11.55 1.788-5.302 0-9.825-.872-13.575-2.618s-6.825-4.216-9.225-7.411c-2.4-3.094-4.177-6.81-5.325-11.151-1.151-4.341-1.725-9.108-1.725-14.297v-1.198c0-10.976 2.573-19.683 7.725-26.119 5.149-6.436 12.424-9.656 21.825-9.656 6.499 0 11.723 1.477 15.675 4.425 3.949 2.951 6.473 7.575 7.575 13.875h24.15c-.6-6.6-2.325-12.274-5.175-17.025-2.85-4.748-6.427-8.674-10.725-11.775-4.301-3-9.176-5.198-14.625-6.6-5.452-1.399-11.175-2.1-17.175-2.1-7.901 0-15.202 1.35-21.9 4.05-6.701 2.7-12.45 6.45-17.25 11.25-4.901 4.8-8.7 10.552-11.4 17.25-2.7 6.701-4.05 14.1-4.05 22.2v1.2c0 8.002 1.2 15.326 3.6 21.975 2.4 6.652 5.948 12.375 10.65 17.175 4.598 4.901 10.275 8.7 17.025 11.4 6.75 2.7 14.524 4.05 23.325 4.05 7.999 0 15.124-1.151 21.375-3.45zM19.875-132h21.6v-76.35l44.7 76.35h24.3v-107.25h-21.6v70.65l-40.8-70.65h-28.2V-132zm-226.197 0h24.3v-44.25h43.05V-132h24.3v-107.25h-24.3v43.8h-43.05v-43.8h-24.3V-132zm-47.399-.9c5.599-1.699 10.5-4.249 14.7-7.65 4.2-3.3 7.598-7.474 10.2-12.525 2.599-5.048 4.249-10.875 4.95-17.475h-23.85c-1.001 6.9-3.675 12.052-8.025 15.45-4.35 3.401-9.877 5.1-16.575 5.1-8.902 0-15.776-3.049-20.625-9.15-4.852-6.098-7.275-14.749-7.275-25.95v-1.2c0-11.198 2.498-19.898 7.5-26.1 4.999-6.199 11.749-9.3 20.25-9.3 6.799 0 12.023 1.676 15.675 5.025 3.649 3.352 5.925 8.276 6.825 14.775h24.9c-.6-6.6-2.227-12.349-4.875-17.25-2.651-4.898-6.026-8.948-10.125-12.15-4.2-3.199-9.075-5.599-14.625-7.2-5.55-1.598-11.527-2.4-17.925-2.4-7.601 0-14.651 1.327-21.15 3.975-6.502 2.651-12.101 6.375-16.8 11.175-4.8 4.8-8.55 10.575-11.25 17.325-2.7 6.75-4.05 14.175-4.05 22.275v1.2c0 8.302 1.148 15.802 3.45 22.5 2.299 6.701 5.749 12.401 10.35 17.1 4.5 4.8 10.099 8.501 16.8 11.1 6.698 2.599 14.449 3.9 23.25 3.9 6.6 0 12.698-.851 18.3-2.55z"/></g><g clip-path="url(#p)" style="display:block" transform="matrix(0 -1.48 1.48 0 1037.538 546.007)"><path fill="#FFF" d="M254.172-132h72.3v-18.9h-48.15v-26.7h36.6v-17.7h-36.6v-25.05h45.75v-18.9h-69.9V-132zm-48.374-1.8c6.248-2.299 11.524-5.55 15.825-9.75 4.298-4.099 7.575-9.075 9.825-14.925 2.25-5.85 3.375-12.375 3.375-19.575v-11.4h-48.15v17.7h24.15c-.101 3.08-.652 5.986-1.65 8.719a18.228 18.228 0 0 1-4.65 7.076c-2.1 2.086-4.751 3.726-7.95 4.917-3.202 1.193-7.05 1.788-11.55 1.788-5.302 0-9.825-.872-13.575-2.618s-6.825-4.216-9.225-7.411c-2.4-3.094-4.177-6.81-5.325-11.151-1.151-4.341-1.725-9.108-1.725-14.297v-1.198c0-10.976 2.573-19.683 7.725-26.119 5.149-6.436 12.424-9.656 21.825-9.656 6.499 0 11.723 1.477 15.675 4.425 3.949 2.951 6.473 7.575 7.575 13.875h24.15c-.6-6.6-2.325-12.274-5.175-17.025-2.85-4.748-6.427-8.674-10.725-11.775-4.301-3-9.176-5.198-14.625-6.6-5.452-1.399-11.175-2.1-17.175-2.1-7.901 0-15.202 1.35-21.9 4.05-6.701 2.7-12.45 6.45-17.25 11.25-4.901 4.8-8.7 10.552-11.4 17.25-2.7 6.701-4.05 14.1-4.05 22.2v1.2c0 8.002 1.2 15.326 3.6 21.975 2.4 6.652 5.948 12.375 10.65 17.175 4.598 4.901 10.275 8.7 17.025 11.4 6.75 2.7 14.524 4.05 23.325 4.05 7.999 0 15.124-1.151 21.375-3.45zM19.875-132h21.6v-76.35l44.7 76.35h24.3v-107.25h-21.6v70.65l-40.8-70.65h-28.2V-132zm-226.197 0h24.3v-44.25h43.05V-132h24.3v-107.25h-24.3v43.8h-43.05v-43.8h-24.3V-132zm-47.399-.9c5.599-1.699 10.5-4.249 14.7-7.65 4.2-3.3 7.598-7.474 10.2-12.525 2.599-5.048 4.249-10.875 4.95-17.475h-23.85c-1.001 6.9-3.675 12.052-8.025 15.45-4.35 3.401-9.877 5.1-16.575 5.1-8.902 0-15.776-3.049-20.625-9.15-4.852-6.098-7.275-14.749-7.275-25.95v-1.2c0-11.198 2.498-19.898 7.5-26.1 4.999-6.199 11.749-9.3 20.25-9.3 6.799 0 12.023 1.676 15.675 5.025 3.649 3.352 5.925 8.276 6.825 14.775h24.9c-.6-6.6-2.227-12.349-4.875-17.25-2.651-4.898-6.026-8.948-10.125-12.15-4.2-3.199-9.075-5.599-14.625-7.2-5.55-1.598-11.527-2.4-17.925-2.4-7.601 0-14.651 1.327-21.15 3.975-6.502 2.651-12.101 6.375-16.8 11.175-4.8 4.8-8.55 10.575-11.25 17.325-2.7 6.75-4.05 14.175-4.05 22.275v1.2c0 8.302 1.148 15.802 3.45 22.5 2.299 6.701 5.749 12.401 10.35 17.1 4.5 4.8 10.099 8.501 16.8 11.1 6.698 2.599 14.449 3.9 23.25 3.9 6.6 0 12.698-.851 18.3-2.55z"/></g><path d="M960-66V66H-960V-66H960z" transform="matrix(0 -1.48 1.48 0 834.396 541.502)" style="display:block"/><g clip-path="url(#q)" style="display:block" transform="matrix(0 -1.48 1.48 0 920.701 546.007)"><path fill="#FFF" d="M205.798-133.8c6.248-2.299 11.524-5.55 15.825-9.75 4.298-4.099 7.575-9.075 9.825-14.925 2.25-5.85 3.375-12.375 3.375-19.575v-11.4h-48.15v17.7h24.15c-.101 3.08-.652 5.986-1.65 8.719a18.228 18.228 0 0 1-4.65 7.076c-2.1 2.086-4.751 3.726-7.95 4.917-3.202 1.193-7.05 1.788-11.55 1.788-5.302 0-9.825-.872-13.575-2.618s-6.825-4.216-9.225-7.411c-2.4-3.094-4.177-6.81-5.325-11.151-1.151-4.341-1.725-9.108-1.725-14.297v-1.198c0-10.976 2.573-19.683 7.725-26.119 5.149-6.436 12.424-9.656 21.825-9.656 6.499 0 11.723 1.477 15.675 4.425 3.949 2.951 6.473 7.575 7.575 13.875h24.15c-.6-6.6-2.325-12.274-5.175-17.025-2.85-4.748-6.427-8.674-10.725-11.775-4.301-3-9.176-5.198-14.625-6.6-5.452-1.399-11.175-2.1-17.175-2.1-7.901 0-15.202 1.35-21.9 4.05-6.701 2.7-12.45 6.45-17.25 11.25-4.901 4.8-8.7 10.552-11.4 17.25-2.7 6.701-4.05 14.1-4.05 22.2v1.2c0 8.002 1.2 15.326 3.6 21.975 2.4 6.652 5.948 12.375 10.65 17.175 4.598 4.901 10.275 8.7 17.025 11.4 6.75 2.7 14.524 4.05 23.325 4.05 7.999 0 15.124-1.151 21.375-3.45zM19.875-132h21.6v-76.35l44.7 76.35h24.3v-107.25h-21.6v70.65l-40.8-70.65h-28.2V-132zm-68.549-87.45 14.1 46.35h-28.35l14.25-46.35zM-98.324-132h22.8l7.35-23.85h38.85l7.35 23.85h25.35l-34.8-107.25h-31.65L-98.324-132zm-155.397-.9c5.599-1.699 10.5-4.249 14.7-7.65 4.2-3.3 7.598-7.474 10.2-12.525 2.599-5.048 4.249-10.875 4.95-17.475h-23.85c-1.001 6.9-3.675 12.052-8.025 15.45-4.35 3.401-9.877 5.1-16.575 5.1-8.902 0-15.776-3.049-20.625-9.15-4.852-6.098-7.275-14.749-7.275-25.95v-1.2c0-11.198 2.498-19.898 7.5-26.1 4.999-6.199 11.749-9.3 20.25-9.3 6.799 0 12.023 1.676 15.675 5.025 3.649 3.352 5.925 8.276 6.825 14.775h24.9c-.6-6.6-2.227-12.349-4.875-17.25-2.651-4.898-6.026-8.948-10.125-12.15-4.2-3.199-9.075-5.599-14.625-7.2-5.55-1.598-11.527-2.4-17.925-2.4-7.601 0-14.651 1.327-21.15 3.975-6.502 2.651-12.101 6.375-16.8 11.175-4.8 4.8-8.55 10.575-11.25 17.325-2.7 6.75-4.05 14.175-4.05 22.275v1.2c0 8.302 1.148 15.802 3.45 22.5 2.299 6.701 5.749 12.401 10.35 17.1 4.5 4.8 10.099 8.501 16.8 11.1 6.698 2.599 14.449 3.9 23.25 3.9 6.6 0 12.698-.851 18.3-2.55z"/></g><g clip-path="url(#r)" style="display:block" transform="matrix(0 -1.48 1.48 0 1116.701 546.007)"><path fill="#FFF" d="M205.798-133.8c6.248-2.299 11.524-5.55 15.825-9.75 4.298-4.099 7.575-9.075 9.825-14.925 2.25-5.85 3.375-12.375 3.375-19.575v-11.4h-48.15v17.7h24.15c-.101 3.08-.652 5.986-1.65 8.719a18.228 18.228 0 0 1-4.65 7.076c-2.1 2.086-4.751 3.726-7.95 4.917-3.202 1.193-7.05 1.788-11.55 1.788-5.302 0-9.825-.872-13.575-2.618s-6.825-4.216-9.225-7.411c-2.4-3.094-4.177-6.81-5.325-11.151-1.151-4.341-1.725-9.108-1.725-14.297v-1.198c0-10.976 2.573-19.683 7.725-26.119 5.149-6.436 12.424-9.656 21.825-9.656 6.499 0 11.723 1.477 15.675 4.425 3.949 2.951 6.473 7.575 7.575 13.875h24.15c-.6-6.6-2.325-12.274-5.175-17.025-2.85-4.748-6.427-8.674-10.725-11.775-4.301-3-9.176-5.198-14.625-6.6-5.452-1.399-11.175-2.1-17.175-2.1-7.901 0-15.202 1.35-21.9 4.05-6.701 2.7-12.45 6.45-17.25 11.25-4.901 4.8-8.7 10.552-11.4 17.25-2.7 6.701-4.05 14.1-4.05 22.2v1.2c0 8.002 1.2 15.326 3.6 21.975 2.4 6.652 5.948 12.375 10.65 17.175 4.598 4.901 10.275 8.7 17.025 11.4 6.75 2.7 14.524 4.05 23.325 4.05 7.999 0 15.124-1.151 21.375-3.45zM19.875-132h21.6v-76.35l44.7 76.35h24.3v-107.25h-21.6v70.65l-40.8-70.65h-28.2V-132zm-68.549-87.45 14.1 46.35h-28.35l14.25-46.35zM-98.324-132h22.8l7.35-23.85h38.85l7.35 23.85h25.35l-34.8-107.25h-31.65L-98.324-132zm-155.397-.9c5.599-1.699 10.5-4.249 14.7-7.65 4.2-3.3 7.598-7.474 10.2-12.525 2.599-5.048 4.249-10.875 4.95-17.475h-23.85c-1.001 6.9-3.675 12.052-8.025 15.45-4.35 3.401-9.877 5.1-16.575 5.1-8.902 0-15.776-3.049-20.625-9.15-4.852-6.098-7.275-14.749-7.275-25.95v-1.2c0-11.198 2.498-19.898 7.5-26.1 4.999-6.199 11.749-9.3 20.25-9.3 6.799 0 12.023 1.676 15.675 5.025 3.649 3.352 5.925 8.276 6.825 14.775h24.9c-.6-6.6-2.227-12.349-4.875-17.25-2.651-4.898-6.026-8.948-10.125-12.15-4.2-3.199-9.075-5.599-14.625-7.2-5.55-1.598-11.527-2.4-17.925-2.4-7.601 0-14.651 1.327-21.15 3.975-6.502 2.651-12.101 6.375-16.8 11.175-4.8 4.8-8.55 10.575-11.25 17.325-2.7 6.75-4.05 14.175-4.05 22.275v1.2c0 8.302 1.148 15.802 3.45 22.5 2.299 6.701 5.749 12.401 10.35 17.1 4.5 4.8 10.099 8.501 16.8 11.1 6.698 2.599 14.449 3.9 23.25 3.9 6.6 0 12.698-.851 18.3-2.55z"/></g><path d="M960-66V66H-960V-66H960z" transform="matrix(0 -1.48 1.48 0 957.04 541.502)" style="display:block"/><g clip-path="url(#s)" style="display:block" transform="matrix(0 -1.48 1.48 0 1038.585 546.007)"><path fill="#FFF" d="M254.172-132h72.3v-18.9h-48.15v-26.7h36.6v-17.7h-36.6v-25.05h45.75v-18.9h-69.9V-132zm-48.374-1.8c6.248-2.299 11.524-5.55 15.825-9.75 4.298-4.099 7.575-9.075 9.825-14.925 2.25-5.85 3.375-12.375 3.375-19.575v-11.4h-48.15v17.7h24.15c-.101 3.08-.652 5.986-1.65 8.719a18.228 18.228 0 0 1-4.65 7.076c-2.1 2.086-4.751 3.726-7.95 4.917-3.202 1.193-7.05 1.788-11.55 1.788-5.302 0-9.825-.872-13.575-2.618s-6.825-4.216-9.225-7.411c-2.4-3.094-4.177-6.81-5.325-11.151-1.151-4.341-1.725-9.108-1.725-14.297v-1.198c0-10.976 2.573-19.683 7.725-26.119 5.149-6.436 12.424-9.656 21.825-9.656 6.499 0 11.723 1.477 15.675 4.425 3.949 2.951 6.473 7.575 7.575 13.875h24.15c-.6-6.6-2.325-12.274-5.175-17.025-2.85-4.748-6.427-8.674-10.725-11.775-4.301-3-9.176-5.198-14.625-6.6-5.452-1.399-11.175-2.1-17.175-2.1-7.901 0-15.202 1.35-21.9 4.05-6.701 2.7-12.45 6.45-17.25 11.25-4.901 4.8-8.7 10.552-11.4 17.25-2.7 6.701-4.05 14.1-4.05 22.2v1.2c0 8.002 1.2 15.326 3.6 21.975 2.4 6.652 5.948 12.375 10.65 17.175 4.598 4.901 10.275 8.7 17.025 11.4 6.75 2.7 14.524 4.05 23.325 4.05 7.999 0 15.124-1.151 21.375-3.45zM19.875-132h21.6v-76.35l44.7 76.35h24.3v-107.25h-21.6v70.65l-40.8-70.65h-28.2V-132zm-68.549-87.45 14.1 46.35h-28.35l14.25-46.35zM-98.324-132h22.8l7.35-23.85h38.85l7.35 23.85h25.35l-34.8-107.25h-31.65L-98.324-132zm-107.998 0h24.3v-44.25h43.05V-132h24.3v-107.25h-24.3v43.8h-43.05v-43.8h-24.3V-132zm-47.399-.9c5.599-1.699 10.5-4.249 14.7-7.65 4.2-3.3 7.598-7.474 10.2-12.525 2.599-5.048 4.249-10.875 4.95-17.475h-23.85c-1.001 6.9-3.675 12.052-8.025 15.45-4.35 3.401-9.877 5.1-16.575 5.1-8.902 0-15.776-3.049-20.625-9.15-4.852-6.098-7.275-14.749-7.275-25.95v-1.2c0-11.198 2.498-19.898 7.5-26.1 4.999-6.199 11.749-9.3 20.25-9.3 6.799 0 12.023 1.676 15.675 5.025 3.649 3.352 5.925 8.276 6.825 14.775h24.9c-.6-6.6-2.227-12.349-4.875-17.25-2.651-4.898-6.026-8.948-10.125-12.15-4.2-3.199-9.075-5.599-14.625-7.2-5.55-1.598-11.527-2.4-17.925-2.4-7.601 0-14.651 1.327-21.15 3.975-6.502 2.651-12.101 6.375-16.8 11.175-4.8 4.8-8.55 10.575-11.25 17.325-2.7 6.75-4.05 14.175-4.05 22.275v1.2c0 8.302 1.148 15.802 3.45 22.5 2.299 6.701 5.749 12.401 10.35 17.1 4.5 4.8 10.099 8.501 16.8 11.1 6.698 2.599 14.449 3.9 23.25 3.9 6.6 0 12.698-.851 18.3-2.55z"/></g><g clip-path="url(#t)" style="display:block" transform="matrix(0 -1.48 1.48 0 1234.585 546.007)"><path fill="#FFF" d="M254.172-132h72.3v-18.9h-48.15v-26.7h36.6v-17.7h-36.6v-25.05h45.75v-18.9h-69.9V-132zm-48.374-1.8c6.248-2.299 11.524-5.55 15.825-9.75 4.298-4.099 7.575-9.075 9.825-14.925 2.25-5.85 3.375-12.375 3.375-19.575v-11.4h-48.15v17.7h24.15c-.101 3.08-.652 5.986-1.65 8.719a18.228 18.228 0 0 1-4.65 7.076c-2.1 2.086-4.751 3.726-7.95 4.917-3.202 1.193-7.05 1.788-11.55 1.788-5.302 0-9.825-.872-13.575-2.618s-6.825-4.216-9.225-7.411c-2.4-3.094-4.177-6.81-5.325-11.151-1.151-4.341-1.725-9.108-1.725-14.297v-1.198c0-10.976 2.573-19.683 7.725-26.119 5.149-6.436 12.424-9.656 21.825-9.656 6.499 0 11.723 1.477 15.675 4.425 3.949 2.951 6.473 7.575 7.575 13.875h24.15c-.6-6.6-2.325-12.274-5.175-17.025-2.85-4.748-6.427-8.674-10.725-11.775-4.301-3-9.176-5.198-14.625-6.6-5.452-1.399-11.175-2.1-17.175-2.1-7.901 0-15.202 1.35-21.9 4.05-6.701 2.7-12.45 6.45-17.25 11.25-4.901 4.8-8.7 10.552-11.4 17.25-2.7 6.701-4.05 14.1-4.05 22.2v1.2c0 8.002 1.2 15.326 3.6 21.975 2.4 6.652 5.948 12.375 10.65 17.175 4.598 4.901 10.275 8.7 17.025 11.4 6.75 2.7 14.524 4.05 23.325 4.05 7.999 0 15.124-1.151 21.375-3.45zM19.875-132h21.6v-76.35l44.7 76.35h24.3v-107.25h-21.6v70.65l-40.8-70.65h-28.2V-132zm-68.549-87.45 14.1 46.35h-28.35l14.25-46.35zM-98.324-132h22.8l7.35-23.85h38.85l7.35 23.85h25.35l-34.8-107.25h-31.65L-98.324-132zm-107.998 0h24.3v-44.25h43.05V-132h24.3v-107.25h-24.3v43.8h-43.05v-43.8h-24.3V-132zm-47.399-.9c5.599-1.699 10.5-4.249 14.7-7.65 4.2-3.3 7.598-7.474 10.2-12.525 2.599-5.048 4.249-10.875 4.95-17.475h-23.85c-1.001 6.9-3.675 12.052-8.025 15.45-4.35 3.401-9.877 5.1-16.575 5.1-8.902 0-15.776-3.049-20.625-9.15-4.852-6.098-7.275-14.749-7.275-25.95v-1.2c0-11.198 2.498-19.898 7.5-26.1 4.999-6.199 11.749-9.3 20.25-9.3 6.799 0 12.023 1.676 15.675 5.025 3.649 3.352 5.925 8.276 6.825 14.775h24.9c-.6-6.6-2.227-12.349-4.875-17.25-2.651-4.898-6.026-8.948-10.125-12.15-4.2-3.199-9.075-5.599-14.625-7.2-5.55-1.598-11.527-2.4-17.925-2.4-7.601 0-14.651 1.327-21.15 3.975-6.502 2.651-12.101 6.375-16.8 11.175-4.8 4.8-8.55 10.575-11.25 17.325-2.7 6.75-4.05 14.175-4.05 22.275v1.2c0 8.302 1.148 15.802 3.45 22.5 2.299 6.701 5.749 12.401 10.35 17.1 4.5 4.8 10.099 8.501 16.8 11.1 6.698 2.599 14.449 3.9 23.25 3.9 6.6 0 12.698-.851 18.3-2.55z"/></g></g></g></svg>